<svg width="52" height="52" viewBox="0 0 52 52" fill="none" xmlns="http://www.w3.org/2000/svg">
<path d="M35.363 29.7452C35.363 34.9162 31.171 39.1082 26 39.1082C20.829 39.1082 16.637 34.9162 16.637 29.7452C16.637 24.5741 20.829 20.3822 26 20.3822C31.171 20.3822 35.363 24.5741 35.363 29.7452Z" stroke="#070707" stroke-width="2.5625"/>
<path d="M1.65625 42.6562L1.65625 19.8358C1.65625 16.0007 4.76517 12.8918 8.60022 12.8918C11.2304 12.8918 13.6348 11.4058 14.8111 9.05327L16.3848 5.90579C17.687 3.30138 20.3489 1.65624 23.2608 1.65625L28.7393 1.65627C31.6511 1.65628 34.313 3.30143 35.6152 5.90582L37.1889 9.05334C38.3652 11.4058 40.7696 12.8919 43.3998 12.8919C47.2348 12.8919 50.3438 16.0008 50.3438 19.8358V42.6562C50.3438 46.9019 46.9019 50.3437 42.6563 50.3437H9.34375C5.09806 50.3437 1.65625 46.9019 1.65625 42.6562Z" stroke="#070707" stroke-width="2.5625"/>
</svg>
